<svg width="576" height="370" viewBox="0 0 576 370" fill="none" xmlns="http://www.w3.org/2000/svg">
<g clip-path="url(#clip0_62_5)">
<rect width="576" height="370" fill="white"/>
<rect x="127" y="-157.5" width="337" height="230" rx="12" fill="#E9EAEF"/>
<rect x="315" y="122" width="17" height="99" rx="8.5" fill="#E9EAEF"/>
<rect x="253" y="122" width="18" height="99" rx="9" fill="#E9EAEF"/>
<rect x="437" y="122" width="17" height="94" rx="8.5" transform="rotate(90 437 122)" fill="#E9EAEF"/>
<path fill-rule="evenodd" clip-rule="evenodd" d="M392 184.847C398.23 183.885 403 178.5 403 172C403 164.82 397.18 159 390 159C382.82 159 377 164.82 377 172C377 178.5 381.77 183.885 388 184.847V194C388 195.105 388.895 196 390 196C391.105 196 392 195.105 392 194V184.847ZM395 172C395 174.761 392.761 177 390 177C387.239 177 385 174.761 385 172C385 169.239 387.239 167 390 167C392.761 167 395 169.239 395 172Z" fill="black"/>
<path d="M110.754 307.5H-454V804.5H920.5V126L544.359 191.181C504.585 198.074 481.047 239.615 495.576 277.276L595 535H238.5L181.125 358.61C171.211 328.132 142.804 307.5 110.754 307.5Z" fill="#90DAEE"/>
<rect x="-89" y="-177" width="156" height="461" rx="32" fill="#C3F1D5"/>
<rect x="494" y="-157.5" width="160" height="230" rx="12" fill="#E9EAEF"/>
<path d="M97 -17V78.5C97 91.7548 107.745 102.5 121 102.5H293.5H612" stroke="black" stroke-width="8" stroke-linecap="round"/>
<path d="M293 104L293 238" stroke="black" stroke-width="8" stroke-linecap="round"/>
<path d="M156 238H432.5" stroke="black" stroke-width="8" stroke-linecap="round"/>
</g>
<defs>
<clipPath id="clip0_62_5">
<rect width="576" height="370" fill="white"/>
</clipPath>
</defs>
</svg>
